<svg width="60" height="80" viewBox="0 0 60 80" fill="none" xmlns="http://www.w3.org/2000/svg">
<path d="M53.3147 28.5579C53.3147 25.9034 60.5204 24.0075 51.2558 8.08141C50.1272 6.07805 48.5247 4.38545 46.5902 3.15353C45.5887 2.53973 44.5099 2.06361 43.3826 1.73786C39.5724 0.59587 28.2492 -2.01107 16.144 2.79384C1.65426 8.54428 -0.63437 29.2475 0.129017 34.615C1.17597 41.9848 7.75501 48.0347 10.4244 55.3183C11.2396 57.5433 11.2722 60.5909 10.9243 63.7509C10.0132 72.0262 16.489 79.264 24.7681 79.4152C33.7253 79.5788 42.484 79.3148 40.9283 77.5551C37.8785 74.1047 39.537 63.6884 39.537 63.6884L39.5687 63.3129C40.1669 56.8525 49.3184 61.8367 55.4193 59.153C57.301 58.3254 57.0897 54.3435 57.0897 52.4475C57.0897 50.5516 57.4327 50.5516 57.776 47.8972C58.1193 45.2427 57.776 44.4846 57.0897 43.347C56.4033 42.2094 58.4622 40.3135 59.8347 39.1759C61.2072 38.0383 53.3147 31.2121 53.3147 28.5579ZM10.844 24.4972C10.844 24.4972 19.3312 26.8102 20.9374 28.7198C22.5436 30.6293 25.132 39.8647 25.132 39.8647C25.132 39.8647 24.5786 40.2545 16.9032 37.9224C9.22774 35.5902 10.844 24.4972 10.844 24.4972ZM17.148 52.5223C17.148 52.5223 22.963 55.0408 23.9141 56.5663C24.8653 58.0917 25.7739 64.9397 25.7739 64.9397C25.7739 64.9397 25.34 65.1597 20.1057 62.7121C14.8714 60.2644 17.148 52.5223 17.148 52.5223ZM44.3079 23.2428C44.2536 23.2428 44.1998 23.2415 44.1458 23.2391V23.2428H37.1959C37.1592 23.3437 37.1076 23.4384 37.0427 23.5237C32.9853 28.696 26.7345 38.1334 27.2344 41.4386C27.4434 42.8195 28.4682 44.7079 29.5793 46.7184C29.849 46.0956 32.6166 39.78 34.3272 38.7016C36.1272 37.5669 44.207 36.483 44.207 36.483C44.207 36.483 44.468 37.0006 41.5784 43.2443C38.8287 49.1859 30.4256 47.0145 29.6184 46.7904L29.7016 46.9406C32.3232 51.6802 35.5872 57.5787 31.5231 62.3024L22.0929 73.0886C21.9053 73.3 21.6422 73.4283 21.3609 73.4455C21.0797 73.4627 20.803 73.3674 20.5914 73.1803C20.3797 72.9933 20.2502 72.7297 20.2311 72.447C20.212 72.1643 20.3048 71.8855 20.4893 71.6713L29.9138 60.8916C32.9947 57.3099 30.254 52.3558 27.8352 47.9836C26.5815 45.7177 25.3969 43.576 25.1221 41.7615C24.4207 37.1223 31.9064 26.7462 34.5587 23.2432H28.8699C28.8634 23.2432 28.8572 23.2432 28.8509 23.2432C27.7586 23.2352 26.7138 22.7934 25.9443 22.014C25.1747 21.2346 24.7428 20.1808 24.7428 19.0826C24.7428 17.9843 25.1747 16.9306 25.9443 16.1512C26.7138 15.3718 27.7586 14.9299 28.8509 14.9219C28.8618 14.9219 28.8728 14.9219 28.8833 14.9219C29.0159 13.5979 29.5483 12.3465 30.409 11.3356C31.2697 10.3248 32.4175 9.60295 33.6981 9.26714C34.9787 8.93133 36.3309 8.99761 37.5729 9.45706C38.815 9.91652 39.8875 10.7472 40.6463 11.8374C41.2925 11.4926 42.0301 11.361 42.7548 11.4611C43.4795 11.5613 44.1545 11.8881 44.6842 12.3953C45.2139 12.9025 45.5715 13.5644 45.7064 14.2873C45.8412 15.0102 45.7465 15.7574 45.4356 16.4232C46.2163 16.6918 46.8769 17.2302 47.2998 17.9426C47.7227 18.6551 47.8806 19.4952 47.7452 20.3137C47.6098 21.1321 47.19 21.8757 46.5605 22.4121C45.931 22.9485 45.1326 23.2429 44.3075 23.243L44.3079 23.2428Z" fill="#DCFDBC"/>
<path d="M29.6188 46.7898L29.5792 46.7178C29.5652 46.7504 29.5558 46.7718 29.5558 46.7718C29.5558 46.7718 29.5777 46.7784 29.6188 46.7898Z" fill="#DCFDBC"/>
</svg>
